<mxfile>
    <diagram name="画面遷移図" id="4rF6iDyrkHFKYCg62cus">
        <mxGraphModel dx="3767" dy="3279" grid="1" gridSize="10" guides="1" tooltips="1" connect="1" arrows="1" fold="1" page="1" pageScale="1" pageWidth="827" pageHeight="1169" background="none" math="0" shadow="0">
            <root>
                <mxCell id="0"/>
                <mxCell id="1" parent="0"/>
                <mxCell id="Vj851V-lgB4kSj_IeYQC-3" value="" style="endArrow=classic;html=1;exitX=1;exitY=0.25;exitDx=0;exitDy=0;entryX=-0.015;entryY=0.197;entryDx=0;entryDy=0;entryPerimeter=0;" parent="1" source="Vj851V-lgB4kSj_IeYQC-7" target="Vj851V-lgB4kSj_IeYQC-9" edge="1">
                    <mxGeometry width="50" height="50" relative="1" as="geometry">
                        <mxPoint x="230" y="355" as="sourcePoint"/>
                        <mxPoint x="400" y="375" as="targetPoint"/>
                    </mxGeometry>
                </mxCell>
                <mxCell id="Vj851V-lgB4kSj_IeYQC-5" value="&lt;font style=&quot;vertical-align: inherit&quot;&gt;&lt;font style=&quot;vertical-align: inherit&quot;&gt;トップページ&lt;/font&gt;&lt;/font&gt;" style="text;html=1;align=center;verticalAlign=middle;resizable=0;points=[];autosize=1;strokeColor=none;" parent="1" vertex="1">
                    <mxGeometry x="80" y="250" width="90" height="20" as="geometry"/>
                </mxCell>
                <mxCell id="Vj851V-lgB4kSj_IeYQC-6" value="&lt;font style=&quot;vertical-align: inherit&quot;&gt;&lt;font style=&quot;vertical-align: inherit&quot;&gt;日記新規作成ページ&lt;/font&gt;&lt;/font&gt;" style="text;html=1;align=center;verticalAlign=middle;resizable=0;points=[];autosize=1;strokeColor=none;" parent="1" vertex="1">
                    <mxGeometry x="400" y="250" width="120" height="20" as="geometry"/>
                </mxCell>
                <mxCell id="Vj851V-lgB4kSj_IeYQC-7" value="" style="rounded=0;whiteSpace=wrap;html=1;" parent="1" vertex="1">
                    <mxGeometry x="80" y="280" width="200" height="280" as="geometry"/>
                </mxCell>
                <mxCell id="Vj851V-lgB4kSj_IeYQC-9" value="" style="rounded=0;whiteSpace=wrap;html=1;" parent="1" vertex="1">
                    <mxGeometry x="400" y="280" width="200" height="360" as="geometry"/>
                </mxCell>
                <mxCell id="Vj851V-lgB4kSj_IeYQC-10" value="&lt;font style=&quot;vertical-align: inherit&quot;&gt;&lt;font style=&quot;vertical-align: inherit&quot;&gt;今日の日記を作る&lt;/font&gt;&lt;/font&gt;" style="rounded=1;whiteSpace=wrap;html=1;" parent="1" vertex="1">
                    <mxGeometry x="120" y="352" width="120" height="40" as="geometry"/>
                </mxCell>
                <mxCell id="Vj851V-lgB4kSj_IeYQC-11" value="&lt;font style=&quot;vertical-align: inherit&quot;&gt;&lt;font style=&quot;vertical-align: inherit&quot;&gt;&lt;font style=&quot;vertical-align: inherit&quot;&gt;&lt;font style=&quot;vertical-align: inherit&quot;&gt;日記を見る&lt;/font&gt;&lt;/font&gt;&lt;/font&gt;&lt;/font&gt;" style="rounded=1;whiteSpace=wrap;html=1;" parent="1" vertex="1">
                    <mxGeometry x="120" y="402" width="120" height="40" as="geometry"/>
                </mxCell>
                <mxCell id="Vj851V-lgB4kSj_IeYQC-12" value="&lt;font style=&quot;vertical-align: inherit&quot;&gt;&lt;font style=&quot;vertical-align: inherit&quot;&gt;ご飯を記録する&lt;/font&gt;&lt;/font&gt;" style="rounded=1;whiteSpace=wrap;html=1;" parent="1" vertex="1">
                    <mxGeometry x="120" y="302" width="120" height="40" as="geometry"/>
                </mxCell>
                <mxCell id="Vj851V-lgB4kSj_IeYQC-13" value="" style="rounded=0;whiteSpace=wrap;html=1;" parent="1" vertex="1">
                    <mxGeometry x="80" y="-120" width="200" height="280" as="geometry"/>
                </mxCell>
                <mxCell id="Vj851V-lgB4kSj_IeYQC-14" value="" style="endArrow=classic;html=1;entryX=0.25;entryY=1;entryDx=0;entryDy=0;exitX=0.25;exitY=0;exitDx=0;exitDy=0;" parent="1" source="Vj851V-lgB4kSj_IeYQC-7" target="Vj851V-lgB4kSj_IeYQC-13" edge="1">
                    <mxGeometry width="50" height="50" relative="1" as="geometry">
                        <mxPoint x="290" y="430" as="sourcePoint"/>
                        <mxPoint x="410" y="430" as="targetPoint"/>
                    </mxGeometry>
                </mxCell>
                <mxCell id="Vj851V-lgB4kSj_IeYQC-15" value="&lt;font style=&quot;vertical-align: inherit&quot;&gt;&lt;font style=&quot;vertical-align: inherit&quot;&gt;ご飯記録ページ&lt;/font&gt;&lt;/font&gt;" style="text;html=1;align=center;verticalAlign=middle;resizable=0;points=[];autosize=1;strokeColor=none;" parent="1" vertex="1">
                    <mxGeometry x="80" y="-151" width="100" height="20" as="geometry"/>
                </mxCell>
                <mxCell id="Vj851V-lgB4kSj_IeYQC-16" value="" style="rounded=0;whiteSpace=wrap;html=1;" parent="1" vertex="1">
                    <mxGeometry x="80" y="680" width="200" height="280" as="geometry"/>
                </mxCell>
                <mxCell id="Vj851V-lgB4kSj_IeYQC-17" value="日記一覧ページ" style="text;html=1;align=center;verticalAlign=middle;resizable=0;points=[];autosize=1;strokeColor=none;" parent="1" vertex="1">
                    <mxGeometry x="80" y="651" width="100" height="20" as="geometry"/>
                </mxCell>
                <mxCell id="Vj851V-lgB4kSj_IeYQC-21" value="" style="rounded=0;whiteSpace=wrap;html=1;imageWidth=24;" parent="1" vertex="1">
                    <mxGeometry x="400" y="680" width="200" height="360" as="geometry"/>
                </mxCell>
                <mxCell id="Vj851V-lgB4kSj_IeYQC-22" value="" style="endArrow=classic;html=1;exitX=0.013;exitY=1.05;exitDx=0;exitDy=0;entryX=0;entryY=0.25;entryDx=0;entryDy=0;exitPerimeter=0;" parent="1" source="Vj851V-lgB4kSj_IeYQC-155" target="Vj851V-lgB4kSj_IeYQC-21" edge="1">
                    <mxGeometry width="50" height="50" relative="1" as="geometry">
                        <mxPoint x="190" y="570" as="sourcePoint"/>
                        <mxPoint x="190" y="690" as="targetPoint"/>
                    </mxGeometry>
                </mxCell>
                <mxCell id="Vj851V-lgB4kSj_IeYQC-23" value="日記詳細ページ" style="text;html=1;align=center;verticalAlign=middle;resizable=0;points=[];autosize=1;strokeColor=none;" parent="1" vertex="1">
                    <mxGeometry x="399" y="650" width="100" height="20" as="geometry"/>
                </mxCell>
                <mxCell id="Vj851V-lgB4kSj_IeYQC-25" value="" style="rounded=0;whiteSpace=wrap;html=1;" parent="1" vertex="1">
                    <mxGeometry x="720" y="680" width="200" height="360" as="geometry"/>
                </mxCell>
                <mxCell id="Vj851V-lgB4kSj_IeYQC-26" value="" style="endArrow=classic;html=1;exitX=1;exitY=0.25;exitDx=0;exitDy=0;entryX=0;entryY=0.25;entryDx=0;entryDy=0;" parent="1" source="Vj851V-lgB4kSj_IeYQC-21" target="Vj851V-lgB4kSj_IeYQC-25" edge="1">
                    <mxGeometry width="50" height="50" relative="1" as="geometry">
                        <mxPoint x="600" y="819.5" as="sourcePoint"/>
                        <mxPoint x="720" y="819.5" as="targetPoint"/>
                    </mxGeometry>
                </mxCell>
                <mxCell id="Vj851V-lgB4kSj_IeYQC-28" value="日記編集ページ" style="text;html=1;align=center;verticalAlign=middle;resizable=0;points=[];autosize=1;strokeColor=none;" parent="1" vertex="1">
                    <mxGeometry x="720" y="650" width="100" height="20" as="geometry"/>
                </mxCell>
                <mxCell id="Vj851V-lgB4kSj_IeYQC-30" value="&lt;font style=&quot;vertical-align: inherit&quot;&gt;&lt;font style=&quot;vertical-align: inherit&quot;&gt;&lt;font style=&quot;vertical-align: inherit&quot;&gt;&lt;font style=&quot;vertical-align: inherit&quot;&gt;買い物リスト&lt;/font&gt;&lt;/font&gt;&lt;/font&gt;&lt;/font&gt;" style="rounded=1;whiteSpace=wrap;html=1;" parent="1" vertex="1">
                    <mxGeometry x="120" y="452" width="120" height="40" as="geometry"/>
                </mxCell>
                <mxCell id="Vj851V-lgB4kSj_IeYQC-31" value="" style="rounded=0;whiteSpace=wrap;html=1;" parent="1" vertex="1">
                    <mxGeometry x="-240" y="280" width="200" height="280" as="geometry"/>
                </mxCell>
                <mxCell id="Vj851V-lgB4kSj_IeYQC-32" value="" style="endArrow=classic;html=1;exitX=0;exitY=0.25;exitDx=0;exitDy=0;entryX=1;entryY=0.25;entryDx=0;entryDy=0;" parent="1" source="Vj851V-lgB4kSj_IeYQC-7" target="Vj851V-lgB4kSj_IeYQC-31" edge="1">
                    <mxGeometry width="50" height="50" relative="1" as="geometry">
                        <mxPoint x="80" y="360" as="sourcePoint"/>
                        <mxPoint x="-40" y="360" as="targetPoint"/>
                    </mxGeometry>
                </mxCell>
                <mxCell id="Vj851V-lgB4kSj_IeYQC-33" value="買い物リストページ" style="text;html=1;align=center;verticalAlign=middle;resizable=0;points=[];autosize=1;strokeColor=none;" parent="1" vertex="1">
                    <mxGeometry x="-240" y="250" width="120" height="20" as="geometry"/>
                </mxCell>
                <mxCell id="Vj851V-lgB4kSj_IeYQC-40" value="追加" style="rounded=1;whiteSpace=wrap;html=1;" parent="1" vertex="1">
                    <mxGeometry x="-160" y="410" width="40" height="20" as="geometry"/>
                </mxCell>
                <mxCell id="Vj851V-lgB4kSj_IeYQC-45" value="" style="endArrow=none;html=1;entryX=0;entryY=1;entryDx=0;entryDy=0;" parent="1" edge="1">
                    <mxGeometry width="50" height="50" relative="1" as="geometry">
                        <mxPoint x="-200" y="320" as="sourcePoint"/>
                        <mxPoint x="-79" y="320" as="targetPoint"/>
                    </mxGeometry>
                </mxCell>
                <mxCell id="Vj851V-lgB4kSj_IeYQC-46" value="" style="endArrow=none;html=1;entryX=0;entryY=1;entryDx=0;entryDy=0;" parent="1" edge="1">
                    <mxGeometry width="50" height="50" relative="1" as="geometry">
                        <mxPoint x="-200" y="350" as="sourcePoint"/>
                        <mxPoint x="-79" y="350" as="targetPoint"/>
                    </mxGeometry>
                </mxCell>
                <mxCell id="Vj851V-lgB4kSj_IeYQC-47" value="" style="endArrow=none;html=1;entryX=0;entryY=1;entryDx=0;entryDy=0;" parent="1" edge="1">
                    <mxGeometry width="50" height="50" relative="1" as="geometry">
                        <mxPoint x="-200.5" y="380" as="sourcePoint"/>
                        <mxPoint x="-79.5" y="380" as="targetPoint"/>
                    </mxGeometry>
                </mxCell>
                <mxCell id="Vj851V-lgB4kSj_IeYQC-48" value="保存" style="rounded=1;whiteSpace=wrap;html=1;" parent="1" vertex="1">
                    <mxGeometry x="142.5" y="130" width="70" height="20" as="geometry"/>
                </mxCell>
                <mxCell id="Vj851V-lgB4kSj_IeYQC-49" value="完了" style="rounded=1;whiteSpace=wrap;html=1;" parent="1" vertex="1">
                    <mxGeometry x="523" y="614" width="40" height="20" as="geometry"/>
                </mxCell>
                <mxCell id="Vj851V-lgB4kSj_IeYQC-50" value="キャンセル" style="rounded=1;whiteSpace=wrap;html=1;" parent="1" vertex="1">
                    <mxGeometry x="435" y="614" width="70" height="20" as="geometry"/>
                </mxCell>
                <mxCell id="Vj851V-lgB4kSj_IeYQC-51" value="" style="endArrow=classic;html=1;exitX=-0.015;exitY=0.578;exitDx=0;exitDy=0;entryX=1;entryY=0.75;entryDx=0;entryDy=0;exitPerimeter=0;" parent="1" source="Vj851V-lgB4kSj_IeYQC-9" target="Vj851V-lgB4kSj_IeYQC-7" edge="1">
                    <mxGeometry width="50" height="50" relative="1" as="geometry">
                        <mxPoint x="290" y="430" as="sourcePoint"/>
                        <mxPoint x="280" y="479" as="targetPoint"/>
                    </mxGeometry>
                </mxCell>
                <mxCell id="Vj851V-lgB4kSj_IeYQC-52" value="" style="rounded=0;whiteSpace=wrap;html=1;" parent="1" vertex="1">
                    <mxGeometry x="-240" y="680" width="200" height="280" as="geometry"/>
                </mxCell>
                <mxCell id="Vj851V-lgB4kSj_IeYQC-53" value="" style="endArrow=classic;html=1;exitX=0.25;exitY=1;exitDx=0;exitDy=0;entryX=0.25;entryY=0;entryDx=0;entryDy=0;" parent="1" source="Vj851V-lgB4kSj_IeYQC-31" target="Vj851V-lgB4kSj_IeYQC-52" edge="1">
                    <mxGeometry width="50" height="50" relative="1" as="geometry">
                        <mxPoint x="-168" y="560" as="sourcePoint"/>
                        <mxPoint x="-168" y="680" as="targetPoint"/>
                    </mxGeometry>
                </mxCell>
                <mxCell id="Vj851V-lgB4kSj_IeYQC-54" value="追加ボタン" style="text;html=1;align=center;verticalAlign=middle;resizable=0;points=[];autosize=1;strokeColor=none;" parent="1" vertex="1">
                    <mxGeometry x="-210" y="600" width="80" height="20" as="geometry"/>
                </mxCell>
                <mxCell id="Vj851V-lgB4kSj_IeYQC-56" value="キャンセル" style="rounded=1;whiteSpace=wrap;html=1;" parent="1" vertex="1">
                    <mxGeometry x="-140" y="780" width="70" height="20" as="geometry"/>
                </mxCell>
                <mxCell id="Vj851V-lgB4kSj_IeYQC-65" value="" style="endArrow=classic;html=1;exitX=0.72;exitY=-0.007;exitDx=0;exitDy=0;entryX=0.715;entryY=1.007;entryDx=0;entryDy=0;exitPerimeter=0;entryPerimeter=0;" parent="1" source="Vj851V-lgB4kSj_IeYQC-52" target="Vj851V-lgB4kSj_IeYQC-31" edge="1">
                    <mxGeometry width="50" height="50" relative="1" as="geometry">
                        <mxPoint x="-180" y="570" as="sourcePoint"/>
                        <mxPoint x="-180" y="690" as="targetPoint"/>
                    </mxGeometry>
                </mxCell>
                <mxCell id="Vj851V-lgB4kSj_IeYQC-66" value="完了" style="rounded=1;whiteSpace=wrap;html=1;" parent="1" vertex="1">
                    <mxGeometry x="-200" y="780" width="40" height="20" as="geometry"/>
                </mxCell>
                <mxCell id="Vj851V-lgB4kSj_IeYQC-67" value="" style="endArrow=none;html=1;" parent="1" edge="1">
                    <mxGeometry width="50" height="50" relative="1" as="geometry">
                        <mxPoint x="-200.5" y="730" as="sourcePoint"/>
                        <mxPoint x="-79.5" y="730" as="targetPoint"/>
                    </mxGeometry>
                </mxCell>
                <mxCell id="Vj851V-lgB4kSj_IeYQC-68" value="追加ページ" style="text;html=1;align=center;verticalAlign=middle;resizable=0;points=[];autosize=1;strokeColor=none;" parent="1" vertex="1">
                    <mxGeometry x="-240" y="650" width="80" height="20" as="geometry"/>
                </mxCell>
                <mxCell id="Vj851V-lgB4kSj_IeYQC-70" value="を追加" style="text;html=1;align=center;verticalAlign=middle;resizable=0;points=[];autosize=1;strokeColor=none;" parent="1" vertex="1">
                    <mxGeometry x="-205" y="740" width="50" height="20" as="geometry"/>
                </mxCell>
                <mxCell id="Vj851V-lgB4kSj_IeYQC-71" value="完了・キャンセルボタン" style="text;html=1;align=center;verticalAlign=middle;resizable=0;points=[];autosize=1;strokeColor=none;" parent="1" vertex="1">
                    <mxGeometry x="-145" y="590" width="150" height="20" as="geometry"/>
                </mxCell>
                <mxCell id="Vj851V-lgB4kSj_IeYQC-72" value="" style="rounded=0;whiteSpace=wrap;html=1;" parent="1" vertex="1">
                    <mxGeometry x="-560" y="280" width="200" height="280" as="geometry"/>
                </mxCell>
                <mxCell id="Vj851V-lgB4kSj_IeYQC-73" value="" style="endArrow=classic;html=1;entryX=0;entryY=0.25;entryDx=0;entryDy=0;exitX=1;exitY=0.25;exitDx=0;exitDy=0;" parent="1" source="Vj851V-lgB4kSj_IeYQC-72" target="Vj851V-lgB4kSj_IeYQC-31" edge="1">
                    <mxGeometry width="50" height="50" relative="1" as="geometry">
                        <mxPoint x="-360" y="401" as="sourcePoint"/>
                        <mxPoint x="-330" y="320" as="targetPoint"/>
                    </mxGeometry>
                </mxCell>
                <mxCell id="Vj851V-lgB4kSj_IeYQC-74" value="購入ページ" style="text;html=1;align=center;verticalAlign=middle;resizable=0;points=[];autosize=1;strokeColor=none;" parent="1" vertex="1">
                    <mxGeometry x="-560" y="250" width="80" height="20" as="geometry"/>
                </mxCell>
                <mxCell id="Vj851V-lgB4kSj_IeYQC-75" value="" style="endArrow=none;html=1;entryX=0;entryY=1;entryDx=0;entryDy=0;" parent="1" edge="1">
                    <mxGeometry width="50" height="50" relative="1" as="geometry">
                        <mxPoint x="-520.5" y="320" as="sourcePoint"/>
                        <mxPoint x="-399.5" y="320" as="targetPoint"/>
                    </mxGeometry>
                </mxCell>
                <mxCell id="Vj851V-lgB4kSj_IeYQC-76" value="" style="endArrow=none;html=1;entryX=0;entryY=1;entryDx=0;entryDy=0;" parent="1" edge="1">
                    <mxGeometry width="50" height="50" relative="1" as="geometry">
                        <mxPoint x="-519.5" y="350" as="sourcePoint"/>
                        <mxPoint x="-398.5" y="350" as="targetPoint"/>
                    </mxGeometry>
                </mxCell>
                <mxCell id="Vj851V-lgB4kSj_IeYQC-77" value="" style="endArrow=none;html=1;entryX=0;entryY=1;entryDx=0;entryDy=0;" parent="1" edge="1">
                    <mxGeometry width="50" height="50" relative="1" as="geometry">
                        <mxPoint x="-520" y="380" as="sourcePoint"/>
                        <mxPoint x="-399" y="380" as="targetPoint"/>
                    </mxGeometry>
                </mxCell>
                <mxCell id="Vj851V-lgB4kSj_IeYQC-79" value="購入ボタン" style="text;html=1;align=center;verticalAlign=middle;resizable=0;points=[];autosize=1;strokeColor=none;" parent="1" vertex="1">
                    <mxGeometry x="-360" y="330" width="80" height="20" as="geometry"/>
                </mxCell>
                <mxCell id="Vj851V-lgB4kSj_IeYQC-80" value="追加" style="rounded=1;whiteSpace=wrap;html=1;" parent="1" vertex="1">
                    <mxGeometry x="-480" y="420" width="40" height="20" as="geometry"/>
                </mxCell>
                <mxCell id="Vj851V-lgB4kSj_IeYQC-81" value="" style="endArrow=classic;html=1;exitX=0;exitY=0.5;exitDx=0;exitDy=0;" parent="1" edge="1">
                    <mxGeometry width="50" height="50" relative="1" as="geometry">
                        <mxPoint x="-240" y="490" as="sourcePoint"/>
                        <mxPoint x="-360" y="490" as="targetPoint"/>
                    </mxGeometry>
                </mxCell>
                <mxCell id="Vj851V-lgB4kSj_IeYQC-82" value="リスト商品選択" style="text;html=1;align=center;verticalAlign=middle;resizable=0;points=[];autosize=1;strokeColor=none;" parent="1" vertex="1">
                    <mxGeometry x="-360" y="460" width="100" height="20" as="geometry"/>
                </mxCell>
                <mxCell id="Vj851V-lgB4kSj_IeYQC-83" value="購入" style="ellipse;whiteSpace=wrap;html=1;aspect=fixed;" parent="1" vertex="1">
                    <mxGeometry x="-430" y="390" width="50" height="50" as="geometry"/>
                </mxCell>
                <mxCell id="Vj851V-lgB4kSj_IeYQC-88" value="昨日の残り" style="text;html=1;align=center;verticalAlign=middle;resizable=0;points=[];autosize=1;strokeColor=none;" parent="1" vertex="1">
                    <mxGeometry x="95" y="-60" width="80" height="20" as="geometry"/>
                </mxCell>
                <mxCell id="Vj851V-lgB4kSj_IeYQC-89" value="追加(朝)" style="text;html=1;align=center;verticalAlign=middle;resizable=0;points=[];autosize=1;strokeColor=none;" parent="1" vertex="1">
                    <mxGeometry x="100" y="-10" width="60" height="20" as="geometry"/>
                </mxCell>
                <mxCell id="Vj851V-lgB4kSj_IeYQC-100" value="" style="endArrow=classic;html=1;exitX=1;exitY=0.75;exitDx=0;exitDy=0;entryX=0;entryY=0.75;entryDx=0;entryDy=0;" parent="1" source="Vj851V-lgB4kSj_IeYQC-31" target="Vj851V-lgB4kSj_IeYQC-7" edge="1">
                    <mxGeometry width="50" height="50" relative="1" as="geometry">
                        <mxPoint x="90" y="410" as="sourcePoint"/>
                        <mxPoint x="78" y="440" as="targetPoint"/>
                    </mxGeometry>
                </mxCell>
                <mxCell id="Vj851V-lgB4kSj_IeYQC-101" value="" style="endArrow=classic;html=1;exitX=0.75;exitY=1;exitDx=0;exitDy=0;entryX=0.75;entryY=0;entryDx=0;entryDy=0;" parent="1" source="Vj851V-lgB4kSj_IeYQC-13" target="Vj851V-lgB4kSj_IeYQC-7" edge="1">
                    <mxGeometry width="50" height="50" relative="1" as="geometry">
                        <mxPoint x="190" y="290" as="sourcePoint"/>
                        <mxPoint x="190" y="170" as="targetPoint"/>
                    </mxGeometry>
                </mxCell>
                <mxCell id="Vj851V-lgB4kSj_IeYQC-103" value="" style="endArrow=classic;html=1;exitX=0.25;exitY=1;exitDx=0;exitDy=0;entryX=0.25;entryY=0;entryDx=0;entryDy=0;" parent="1" edge="1">
                    <mxGeometry width="50" height="50" relative="1" as="geometry">
                        <mxPoint x="133" y="560" as="sourcePoint"/>
                        <mxPoint x="133" y="680" as="targetPoint"/>
                    </mxGeometry>
                </mxCell>
                <mxCell id="Vj851V-lgB4kSj_IeYQC-104" value="" style="endArrow=classic;html=1;exitX=0.72;exitY=-0.007;exitDx=0;exitDy=0;entryX=0.715;entryY=1.007;entryDx=0;entryDy=0;exitPerimeter=0;entryPerimeter=0;" parent="1" edge="1">
                    <mxGeometry width="50" height="50" relative="1" as="geometry">
                        <mxPoint x="227" y="678.04" as="sourcePoint"/>
                        <mxPoint x="226" y="561.96" as="targetPoint"/>
                    </mxGeometry>
                </mxCell>
                <mxCell id="Vj851V-lgB4kSj_IeYQC-107" value="ご飯を記録するボタン" style="text;html=1;align=center;verticalAlign=middle;resizable=0;points=[];autosize=1;strokeColor=none;" parent="1" vertex="1">
                    <mxGeometry x="30" y="210" width="140" height="20" as="geometry"/>
                </mxCell>
                <mxCell id="Vj851V-lgB4kSj_IeYQC-108" value="保存ボタン" style="text;html=1;align=center;verticalAlign=middle;resizable=0;points=[];autosize=1;strokeColor=none;" parent="1" vertex="1">
                    <mxGeometry x="200" y="210" width="80" height="20" as="geometry"/>
                </mxCell>
                <mxCell id="Vj851V-lgB4kSj_IeYQC-122" value="&lt;font style=&quot;font-size: 8px&quot;&gt;月　日　曜日　時最終更新&lt;/font&gt;" style="rounded=0;whiteSpace=wrap;html=1;" parent="1" vertex="1">
                    <mxGeometry x="105" y="715" width="145" height="30" as="geometry"/>
                </mxCell>
                <mxCell id="Vj851V-lgB4kSj_IeYQC-123" value="" style="rounded=0;whiteSpace=wrap;html=1;" parent="1" vertex="1">
                    <mxGeometry x="105" y="755" width="145" height="30" as="geometry"/>
                </mxCell>
                <mxCell id="Vj851V-lgB4kSj_IeYQC-124" value="" style="rounded=0;whiteSpace=wrap;html=1;" parent="1" vertex="1">
                    <mxGeometry x="105" y="795" width="145" height="30" as="geometry"/>
                </mxCell>
                <mxCell id="Vj851V-lgB4kSj_IeYQC-125" value="" style="rounded=0;whiteSpace=wrap;html=1;" parent="1" vertex="1">
                    <mxGeometry x="105" y="835" width="145" height="30" as="geometry"/>
                </mxCell>
                <mxCell id="Vj851V-lgB4kSj_IeYQC-126" value="&lt;span style=&quot;font-size: 8px&quot;&gt;月　日　曜日　時最終更新&lt;/span&gt;" style="text;html=1;align=center;verticalAlign=middle;resizable=0;points=[];autosize=1;strokeColor=none;" parent="1" vertex="1">
                    <mxGeometry x="414" y="699" width="140" height="20" as="geometry"/>
                </mxCell>
                <mxCell id="Vj851V-lgB4kSj_IeYQC-127" value="" style="rounded=0;whiteSpace=wrap;html=1;" parent="1" vertex="1">
                    <mxGeometry x="417.5" y="780" width="165" height="40" as="geometry"/>
                </mxCell>
                <mxCell id="Vj851V-lgB4kSj_IeYQC-128" value="今日のメモ" style="text;html=1;align=center;verticalAlign=middle;resizable=0;points=[];autosize=1;strokeColor=none;" parent="1" vertex="1">
                    <mxGeometry x="409" y="760" width="80" height="20" as="geometry"/>
                </mxCell>
                <mxCell id="Vj851V-lgB4kSj_IeYQC-129" value="画像" style="rounded=0;whiteSpace=wrap;html=1;" parent="1" vertex="1">
                    <mxGeometry x="417.5" y="720" width="165" height="30" as="geometry"/>
                </mxCell>
                <mxCell id="Vj851V-lgB4kSj_IeYQC-130" value="削除" style="rounded=1;whiteSpace=wrap;html=1;" parent="1" vertex="1">
                    <mxGeometry x="505" y="1007" width="70" height="20" as="geometry"/>
                </mxCell>
                <mxCell id="Vj851V-lgB4kSj_IeYQC-131" value="編集" style="rounded=1;whiteSpace=wrap;html=1;" parent="1" vertex="1">
                    <mxGeometry x="425" y="1007" width="70" height="20" as="geometry"/>
                </mxCell>
                <mxCell id="Vj851V-lgB4kSj_IeYQC-134" value="体重___g" style="text;html=1;align=center;verticalAlign=middle;resizable=0;points=[];autosize=1;strokeColor=none;" parent="1" vertex="1">
                    <mxGeometry x="419" y="840" width="70" height="20" as="geometry"/>
                </mxCell>
                <mxCell id="Vj851V-lgB4kSj_IeYQC-136" value="食べた餌の量約___g" style="text;html=1;align=center;verticalAlign=middle;resizable=0;points=[];autosize=1;strokeColor=none;" parent="1" vertex="1">
                    <mxGeometry x="419" y="870" width="130" height="20" as="geometry"/>
                </mxCell>
                <mxCell id="Vj851V-lgB4kSj_IeYQC-137" value="体調チェック" style="text;html=1;align=center;verticalAlign=middle;resizable=0;points=[];autosize=1;strokeColor=none;" parent="1" vertex="1">
                    <mxGeometry x="422" y="902" width="90" height="20" as="geometry"/>
                </mxCell>
                <mxCell id="Vj851V-lgB4kSj_IeYQC-138" value="" style="endArrow=none;html=1;startArrow=none;" parent="1" edge="1">
                    <mxGeometry width="50" height="50" relative="1" as="geometry">
                        <mxPoint x="549" y="930" as="sourcePoint"/>
                        <mxPoint x="549" y="930" as="targetPoint"/>
                    </mxGeometry>
                </mxCell>
                <mxCell id="Vj851V-lgB4kSj_IeYQC-155" value="各日記を選択" style="text;html=1;align=center;verticalAlign=middle;resizable=0;points=[];autosize=1;strokeColor=none;fontSize=8;" parent="1" vertex="1">
                    <mxGeometry x="280" y="750" width="80" height="20" as="geometry"/>
                </mxCell>
                <mxCell id="Vj851V-lgB4kSj_IeYQC-156" value="戻る" style="rounded=1;whiteSpace=wrap;html=1;" parent="1" vertex="1">
                    <mxGeometry x="400" y="680" width="70" height="20" as="geometry"/>
                </mxCell>
                <mxCell id="Vj851V-lgB4kSj_IeYQC-157" value="" style="endArrow=classic;html=1;exitX=0;exitY=0.5;exitDx=0;exitDy=0;entryX=1.02;entryY=0.643;entryDx=0;entryDy=0;entryPerimeter=0;" parent="1" source="Vj851V-lgB4kSj_IeYQC-21" target="Vj851V-lgB4kSj_IeYQC-16" edge="1">
                    <mxGeometry width="50" height="50" relative="1" as="geometry">
                        <mxPoint x="291.03999999999996" y="781" as="sourcePoint"/>
                        <mxPoint x="360" y="990" as="targetPoint"/>
                    </mxGeometry>
                </mxCell>
                <mxCell id="Vj851V-lgB4kSj_IeYQC-158" value="削除・戻るボタン" style="text;html=1;align=center;verticalAlign=middle;resizable=0;points=[];autosize=1;strokeColor=none;fontSize=8;" parent="1" vertex="1">
                    <mxGeometry x="280" y="830" width="100" height="20" as="geometry"/>
                </mxCell>
                <mxCell id="Vj851V-lgB4kSj_IeYQC-159" value="編集ボタン" style="text;html=1;align=center;verticalAlign=middle;resizable=0;points=[];autosize=1;strokeColor=none;fontSize=8;" parent="1" vertex="1">
                    <mxGeometry x="600" y="745" width="70" height="20" as="geometry"/>
                </mxCell>
                <mxCell id="Vj851V-lgB4kSj_IeYQC-160" value="&lt;span style=&quot;font-size: 8px&quot;&gt;月　日　曜日　時最終更新&lt;/span&gt;" style="text;html=1;align=center;verticalAlign=middle;resizable=0;points=[];autosize=1;strokeColor=none;" parent="1" vertex="1">
                    <mxGeometry x="730" y="705" width="140" height="20" as="geometry"/>
                </mxCell>
                <mxCell id="Vj851V-lgB4kSj_IeYQC-162" value="画像" style="rounded=0;whiteSpace=wrap;html=1;" parent="1" vertex="1">
                    <mxGeometry x="737.5" y="730" width="165" height="30" as="geometry"/>
                </mxCell>
                <mxCell id="Vj851V-lgB4kSj_IeYQC-163" value="" style="rounded=0;whiteSpace=wrap;html=1;" parent="1" vertex="1">
                    <mxGeometry x="737.5" y="790" width="165" height="40" as="geometry"/>
                </mxCell>
                <mxCell id="Vj851V-lgB4kSj_IeYQC-164" value="今日のメモ" style="text;html=1;align=center;verticalAlign=middle;resizable=0;points=[];autosize=1;strokeColor=none;" parent="1" vertex="1">
                    <mxGeometry x="730" y="770" width="80" height="20" as="geometry"/>
                </mxCell>
                <mxCell id="Vj851V-lgB4kSj_IeYQC-165" value="体重___g" style="text;html=1;align=center;verticalAlign=middle;resizable=0;points=[];autosize=1;strokeColor=none;" parent="1" vertex="1">
                    <mxGeometry x="730" y="850" width="70" height="20" as="geometry"/>
                </mxCell>
                <mxCell id="Vj851V-lgB4kSj_IeYQC-166" value="食べた餌の量約___g" style="text;html=1;align=center;verticalAlign=middle;resizable=0;points=[];autosize=1;strokeColor=none;" parent="1" vertex="1">
                    <mxGeometry x="730" y="880" width="130" height="20" as="geometry"/>
                </mxCell>
                <mxCell id="Vj851V-lgB4kSj_IeYQC-167" value="体調チェック" style="text;html=1;align=center;verticalAlign=middle;resizable=0;points=[];autosize=1;strokeColor=none;" parent="1" vertex="1">
                    <mxGeometry x="729" y="913" width="90" height="20" as="geometry"/>
                </mxCell>
                <mxCell id="Vj851V-lgB4kSj_IeYQC-170" value="" style="endArrow=classic;html=1;exitX=0;exitY=0.75;exitDx=0;exitDy=0;entryX=1;entryY=0.75;entryDx=0;entryDy=0;" parent="1" source="Vj851V-lgB4kSj_IeYQC-25" target="Vj851V-lgB4kSj_IeYQC-21" edge="1">
                    <mxGeometry width="50" height="50" relative="1" as="geometry">
                        <mxPoint x="720" y="920" as="sourcePoint"/>
                        <mxPoint x="600" y="918.9200000000001" as="targetPoint"/>
                    </mxGeometry>
                </mxCell>
                <mxCell id="Vj851V-lgB4kSj_IeYQC-171" value="完了・キャンセルボタン" style="text;html=1;align=center;verticalAlign=middle;resizable=0;points=[];autosize=1;strokeColor=none;fontSize=8;" parent="1" vertex="1">
                    <mxGeometry x="590" y="920" width="130" height="20" as="geometry"/>
                </mxCell>
                <mxCell id="Vj851V-lgB4kSj_IeYQC-172" value="キャンセル" style="rounded=1;whiteSpace=wrap;html=1;" parent="1" vertex="1">
                    <mxGeometry x="815" y="1000" width="70" height="20" as="geometry"/>
                </mxCell>
                <mxCell id="Vj851V-lgB4kSj_IeYQC-173" value="完了" style="rounded=1;whiteSpace=wrap;html=1;" parent="1" vertex="1">
                    <mxGeometry x="755" y="1000" width="40" height="20" as="geometry"/>
                </mxCell>
                <mxCell id="Vj851V-lgB4kSj_IeYQC-174" value="日記を作るボタン" style="text;html=1;align=center;verticalAlign=middle;resizable=0;points=[];autosize=1;strokeColor=none;fontSize=8;" parent="1" vertex="1">
                    <mxGeometry x="280" y="330" width="100" height="20" as="geometry"/>
                </mxCell>
                <mxCell id="Vj851V-lgB4kSj_IeYQC-175" value="キャンセルボタン" style="text;html=1;align=center;verticalAlign=middle;resizable=0;points=[];autosize=1;strokeColor=none;fontSize=8;" parent="1" vertex="1">
                    <mxGeometry x="280" y="470" width="100" height="20" as="geometry"/>
                </mxCell>
                <mxCell id="Vj851V-lgB4kSj_IeYQC-176" value="&lt;span style=&quot;font-size: 8px&quot;&gt;月　日　曜日　時&lt;/span&gt;" style="text;html=1;align=center;verticalAlign=middle;resizable=0;points=[];autosize=1;strokeColor=none;" parent="1" vertex="1">
                    <mxGeometry x="439" y="300" width="100" height="20" as="geometry"/>
                </mxCell>
                <mxCell id="Vj851V-lgB4kSj_IeYQC-177" value="画像をアップロード" style="rounded=0;whiteSpace=wrap;html=1;" parent="1" vertex="1">
                    <mxGeometry x="419" y="330" width="165" height="30" as="geometry"/>
                </mxCell>
                <mxCell id="Vj851V-lgB4kSj_IeYQC-178" value="" style="rounded=0;whiteSpace=wrap;html=1;" parent="1" vertex="1">
                    <mxGeometry x="422.5" y="390" width="165" height="40" as="geometry"/>
                </mxCell>
                <mxCell id="Vj851V-lgB4kSj_IeYQC-179" value="今日のメモ" style="text;html=1;align=center;verticalAlign=middle;resizable=0;points=[];autosize=1;strokeColor=none;" parent="1" vertex="1">
                    <mxGeometry x="414" y="370" width="80" height="20" as="geometry"/>
                </mxCell>
                <mxCell id="Vj851V-lgB4kSj_IeYQC-180" value="体重___g" style="text;html=1;align=center;verticalAlign=middle;resizable=0;points=[];autosize=1;strokeColor=none;" parent="1" vertex="1">
                    <mxGeometry x="420" y="450" width="70" height="20" as="geometry"/>
                </mxCell>
                <mxCell id="Vj851V-lgB4kSj_IeYQC-181" value="食べた餌の量約___g" style="text;html=1;align=center;verticalAlign=middle;resizable=0;points=[];autosize=1;strokeColor=none;" parent="1" vertex="1">
                    <mxGeometry x="420" y="480" width="130" height="20" as="geometry"/>
                </mxCell>
                <mxCell id="Vj851V-lgB4kSj_IeYQC-185" value="→ご飯記録を更新する" style="text;html=1;align=center;verticalAlign=middle;resizable=0;points=[];autosize=1;strokeColor=none;fontSize=8;" parent="1" vertex="1">
                    <mxGeometry x="439" y="500" width="120" height="20" as="geometry"/>
                </mxCell>
                <mxCell id="Vj851V-lgB4kSj_IeYQC-186" value="" style="endArrow=classic;html=1;exitX=0.25;exitY=0;exitDx=0;exitDy=0;entryX=1;entryY=0.721;entryDx=0;entryDy=0;entryPerimeter=0;" parent="1" source="Vj851V-lgB4kSj_IeYQC-9" target="Vj851V-lgB4kSj_IeYQC-13" edge="1">
                    <mxGeometry width="50" height="50" relative="1" as="geometry">
                        <mxPoint x="457" y="100" as="sourcePoint"/>
                        <mxPoint x="450" y="159.99999999999977" as="targetPoint"/>
                        <Array as="points">
                            <mxPoint x="450" y="82"/>
                        </Array>
                    </mxGeometry>
                </mxCell>
                <mxCell id="Vj851V-lgB4kSj_IeYQC-187" value="ご飯記録を更新するボタン" style="text;html=1;align=center;verticalAlign=middle;resizable=0;points=[];autosize=1;strokeColor=none;fontSize=8;" parent="1" vertex="1">
                    <mxGeometry x="330" y="120" width="140" height="20" as="geometry"/>
                </mxCell>
                <mxCell id="Vj851V-lgB4kSj_IeYQC-188" value="" style="endArrow=classic;html=1;entryX=0.75;entryY=0;entryDx=0;entryDy=0;exitX=1;exitY=0.25;exitDx=0;exitDy=0;" parent="1" source="Vj851V-lgB4kSj_IeYQC-13" target="Vj851V-lgB4kSj_IeYQC-9" edge="1">
                    <mxGeometry width="50" height="50" relative="1" as="geometry">
                        <mxPoint x="550" y="159.99999999999977" as="sourcePoint"/>
                        <mxPoint x="290" y="30" as="targetPoint"/>
                        <Array as="points">
                            <mxPoint x="550" y="-50"/>
                        </Array>
                    </mxGeometry>
                </mxCell>
                <mxCell id="Vj851V-lgB4kSj_IeYQC-189" value="保存ボタン" style="text;html=1;align=center;verticalAlign=middle;resizable=0;points=[];autosize=1;strokeColor=none;fontSize=8;" parent="1" vertex="1">
                    <mxGeometry x="545" y="190" width="70" height="20" as="geometry"/>
                </mxCell>
                <mxCell id="ciVzXoBMwC5azgXlxx6R-8" value="ログイン画面" style="rounded=0;whiteSpace=wrap;html=1;" parent="1" vertex="1">
                    <mxGeometry x="720" y="-120" width="200" height="280" as="geometry"/>
                </mxCell>
                <mxCell id="ciVzXoBMwC5azgXlxx6R-11" value="" style="endArrow=classic;html=1;exitX=-0.011;exitY=0.429;exitDx=0;exitDy=0;entryX=1.01;entryY=0.077;entryDx=0;entryDy=0;entryPerimeter=0;exitPerimeter=0;" parent="1" source="ciVzXoBMwC5azgXlxx6R-8" target="Vj851V-lgB4kSj_IeYQC-7" edge="1">
                    <mxGeometry width="50" height="50" relative="1" as="geometry">
                        <mxPoint x="240" y="170" as="sourcePoint"/>
                        <mxPoint x="240" y="290" as="targetPoint"/>
                    </mxGeometry>
                </mxCell>
                <mxCell id="ciVzXoBMwC5azgXlxx6R-12" value="" style="endArrow=classic;html=1;entryX=0;entryY=0.75;entryDx=0;entryDy=0;exitX=0;exitY=0;exitDx=0;exitDy=0;exitPerimeter=0;" parent="1" source="Vj851V-lgB4kSj_IeYQC-174" target="ciVzXoBMwC5azgXlxx6R-25" edge="1">
                    <mxGeometry width="50" height="50" relative="1" as="geometry">
                        <mxPoint x="340" y="290" as="sourcePoint"/>
                        <mxPoint x="290" y="290" as="targetPoint"/>
                    </mxGeometry>
                </mxCell>
                <mxCell id="ciVzXoBMwC5azgXlxx6R-13" value="ログインボタン" style="text;html=1;align=center;verticalAlign=middle;resizable=0;points=[];autosize=1;strokeColor=none;" parent="1" vertex="1">
                    <mxGeometry x="440" y="60" width="100" height="20" as="geometry"/>
                </mxCell>
                <mxCell id="ciVzXoBMwC5azgXlxx6R-14" value="" style="rounded=0;whiteSpace=wrap;html=1;" parent="1" vertex="1">
                    <mxGeometry x="1000" y="-120" width="200" height="280" as="geometry"/>
                </mxCell>
                <mxCell id="ciVzXoBMwC5azgXlxx6R-15" value="&lt;font style=&quot;vertical-align: inherit&quot;&gt;&lt;font style=&quot;vertical-align: inherit&quot;&gt;ログインする&lt;/font&gt;&lt;/font&gt;" style="rounded=1;whiteSpace=wrap;html=1;" parent="1" vertex="1">
                    <mxGeometry x="1040" y="-90" width="120" height="40" as="geometry"/>
                </mxCell>
                <mxCell id="ciVzXoBMwC5azgXlxx6R-16" value="&lt;font style=&quot;vertical-align: inherit&quot;&gt;&lt;font style=&quot;vertical-align: inherit&quot;&gt;新規登録する&lt;/font&gt;&lt;/font&gt;" style="rounded=1;whiteSpace=wrap;html=1;" parent="1" vertex="1">
                    <mxGeometry x="1040" y="-30" width="120" height="40" as="geometry"/>
                </mxCell>
                <mxCell id="ciVzXoBMwC5azgXlxx6R-17" value="&lt;font style=&quot;vertical-align: inherit&quot;&gt;&lt;font style=&quot;vertical-align: inherit&quot;&gt;ログイン&lt;/font&gt;&lt;/font&gt;" style="rounded=1;whiteSpace=wrap;html=1;" parent="1" vertex="1">
                    <mxGeometry x="765" y="60" width="120" height="40" as="geometry"/>
                </mxCell>
                <mxCell id="ciVzXoBMwC5azgXlxx6R-18" value="会員登録画面" style="rounded=0;whiteSpace=wrap;html=1;" parent="1" vertex="1">
                    <mxGeometry x="720" y="-420" width="200" height="280" as="geometry"/>
                </mxCell>
                <mxCell id="ciVzXoBMwC5azgXlxx6R-19" value="会員登録" style="rounded=1;whiteSpace=wrap;html=1;" parent="1" vertex="1">
                    <mxGeometry x="765" y="-240" width="120" height="40" as="geometry"/>
                </mxCell>
                <mxCell id="ciVzXoBMwC5azgXlxx6R-20" value="ログアウト" style="rounded=1;whiteSpace=wrap;html=1;" parent="1" vertex="1">
                    <mxGeometry x="120" y="502" width="120" height="40" as="geometry"/>
                </mxCell>
                <mxCell id="Vj851V-lgB4kSj_IeYQC-204" value="Untitled Layer" parent="0"/>
                <mxCell id="Vj851V-lgB4kSj_IeYQC-205" value="体調チェック" style="text;html=1;align=center;verticalAlign=middle;resizable=0;points=[];autosize=1;strokeColor=none;" parent="Vj851V-lgB4kSj_IeYQC-204" vertex="1">
                    <mxGeometry x="420" y="520" width="90" height="20" as="geometry"/>
                </mxCell>
                <mxCell id="Vj851V-lgB4kSj_IeYQC-207" value="トップへ" style="rounded=1;whiteSpace=wrap;html=1;" parent="Vj851V-lgB4kSj_IeYQC-204" vertex="1">
                    <mxGeometry x="80" y="680" width="70" height="20" as="geometry"/>
                </mxCell>
                <mxCell id="Vj851V-lgB4kSj_IeYQC-208" value="トップへ" style="rounded=1;whiteSpace=wrap;html=1;" parent="Vj851V-lgB4kSj_IeYQC-204" vertex="1">
                    <mxGeometry x="-240" y="280" width="70" height="20" as="geometry"/>
                </mxCell>
                <mxCell id="Vj851V-lgB4kSj_IeYQC-209" value="トップへボタン" style="text;html=1;align=center;verticalAlign=middle;resizable=0;points=[];autosize=1;strokeColor=none;fontSize=8;" parent="Vj851V-lgB4kSj_IeYQC-204" vertex="1">
                    <mxGeometry x="-40" y="470" width="80" height="20" as="geometry"/>
                </mxCell>
                <mxCell id="Vj851V-lgB4kSj_IeYQC-210" value="買いものリスト" style="text;html=1;align=center;verticalAlign=middle;resizable=0;points=[];autosize=1;strokeColor=none;fontSize=8;" parent="Vj851V-lgB4kSj_IeYQC-204" vertex="1">
                    <mxGeometry x="-45" y="320" width="90" height="20" as="geometry"/>
                </mxCell>
                <mxCell id="Vj851V-lgB4kSj_IeYQC-211" value="日記を見るボタン" style="text;html=1;align=center;verticalAlign=middle;resizable=0;points=[];autosize=1;strokeColor=none;fontSize=8;" parent="Vj851V-lgB4kSj_IeYQC-204" vertex="1">
                    <mxGeometry x="80" y="600" width="100" height="20" as="geometry"/>
                </mxCell>
                <mxCell id="Vj851V-lgB4kSj_IeYQC-212" value="トップへボタン" style="text;html=1;align=center;verticalAlign=middle;resizable=0;points=[];autosize=1;strokeColor=none;fontSize=8;" parent="Vj851V-lgB4kSj_IeYQC-204" vertex="1">
                    <mxGeometry x="200" y="610" width="80" height="20" as="geometry"/>
                </mxCell>
                <mxCell id="Vj851V-lgB4kSj_IeYQC-215" value="完了ボタン" style="text;html=1;align=center;verticalAlign=middle;resizable=0;points=[];autosize=1;strokeColor=none;fontSize=8;" parent="Vj851V-lgB4kSj_IeYQC-204" vertex="1">
                    <mxGeometry x="305" y="600" width="70" height="20" as="geometry"/>
                </mxCell>
                <mxCell id="Vj851V-lgB4kSj_IeYQC-216" value="" style="endArrow=classic;html=1;exitX=0;exitY=0.95;exitDx=0;exitDy=0;entryX=1;entryY=0.143;entryDx=0;entryDy=0;exitPerimeter=0;entryPerimeter=0;" parent="Vj851V-lgB4kSj_IeYQC-204" source="Vj851V-lgB4kSj_IeYQC-9" target="Vj851V-lgB4kSj_IeYQC-16" edge="1">
                    <mxGeometry width="50" height="50" relative="1" as="geometry">
                        <mxPoint x="398.5" y="669.9999999999999" as="sourcePoint"/>
                        <mxPoint x="281.5" y="671.92" as="targetPoint"/>
                        <Array as="points">
                            <mxPoint x="330" y="622"/>
                            <mxPoint x="330" y="720"/>
                        </Array>
                    </mxGeometry>
                </mxCell>
                <mxCell id="Vj851V-lgB4kSj_IeYQC-217" value="_______g" style="text;html=1;align=center;verticalAlign=middle;resizable=0;points=[];autosize=1;strokeColor=none;fontSize=8;" parent="Vj851V-lgB4kSj_IeYQC-204" vertex="1">
                    <mxGeometry x="170" y="-60" width="60" height="20" as="geometry"/>
                </mxCell>
                <mxCell id="Vj851V-lgB4kSj_IeYQC-218" value="_______g" style="text;html=1;align=center;verticalAlign=middle;resizable=0;points=[];autosize=1;strokeColor=none;fontSize=8;" parent="Vj851V-lgB4kSj_IeYQC-204" vertex="1">
                    <mxGeometry x="170" y="-10" width="60" height="20" as="geometry"/>
                </mxCell>
                <mxCell id="Vj851V-lgB4kSj_IeYQC-220" value="追加(昼)" style="text;html=1;align=center;verticalAlign=middle;resizable=0;points=[];autosize=1;strokeColor=none;" parent="Vj851V-lgB4kSj_IeYQC-204" vertex="1">
                    <mxGeometry x="100" y="30" width="60" height="20" as="geometry"/>
                </mxCell>
                <mxCell id="Vj851V-lgB4kSj_IeYQC-221" value="追加(夜)" style="text;html=1;align=center;verticalAlign=middle;resizable=0;points=[];autosize=1;strokeColor=none;" parent="Vj851V-lgB4kSj_IeYQC-204" vertex="1">
                    <mxGeometry x="100" y="70" width="60" height="20" as="geometry"/>
                </mxCell>
                <mxCell id="Vj851V-lgB4kSj_IeYQC-223" value="_______g" style="text;html=1;align=center;verticalAlign=middle;resizable=0;points=[];autosize=1;strokeColor=none;fontSize=8;" parent="Vj851V-lgB4kSj_IeYQC-204" vertex="1">
                    <mxGeometry x="170" y="30" width="60" height="20" as="geometry"/>
                </mxCell>
                <mxCell id="Vj851V-lgB4kSj_IeYQC-224" value="_______g" style="text;html=1;align=center;verticalAlign=middle;resizable=0;points=[];autosize=1;strokeColor=none;fontSize=8;" parent="Vj851V-lgB4kSj_IeYQC-204" vertex="1">
                    <mxGeometry x="170" y="70" width="60" height="20" as="geometry"/>
                </mxCell>
                <mxCell id="Vj851V-lgB4kSj_IeYQC-234" value="残り" style="text;html=1;align=center;verticalAlign=middle;resizable=0;points=[];autosize=1;strokeColor=none;" parent="Vj851V-lgB4kSj_IeYQC-204" vertex="1">
                    <mxGeometry x="110" y="100" width="40" height="20" as="geometry"/>
                </mxCell>
                <mxCell id="Vj851V-lgB4kSj_IeYQC-235" value="_______g" style="text;html=1;align=center;verticalAlign=middle;resizable=0;points=[];autosize=1;strokeColor=none;fontSize=8;" parent="Vj851V-lgB4kSj_IeYQC-204" vertex="1">
                    <mxGeometry x="170" y="100" width="60" height="20" as="geometry"/>
                </mxCell>
                <mxCell id="Vj851V-lgB4kSj_IeYQC-238" value="" style="rounded=0;whiteSpace=wrap;html=1;" parent="Vj851V-lgB4kSj_IeYQC-204" vertex="1">
                    <mxGeometry x="-200" y="-80" width="200" height="280" as="geometry"/>
                </mxCell>
                <mxCell id="Vj851V-lgB4kSj_IeYQC-239" value="&lt;font style=&quot;vertical-align: inherit&quot;&gt;&lt;font style=&quot;vertical-align: inherit&quot;&gt;今日の日記を編集する&lt;br&gt;&lt;/font&gt;&lt;/font&gt;" style="rounded=1;whiteSpace=wrap;html=1;" parent="Vj851V-lgB4kSj_IeYQC-204" vertex="1">
                    <mxGeometry x="-160" y="-1" width="120" height="40" as="geometry"/>
                </mxCell>
                <mxCell id="Vj851V-lgB4kSj_IeYQC-240" value="&lt;font style=&quot;vertical-align: inherit&quot;&gt;&lt;font style=&quot;vertical-align: inherit&quot;&gt;&lt;font style=&quot;vertical-align: inherit&quot;&gt;&lt;font style=&quot;vertical-align: inherit&quot;&gt;日記を見る&lt;/font&gt;&lt;/font&gt;&lt;/font&gt;&lt;/font&gt;" style="rounded=1;whiteSpace=wrap;html=1;" parent="Vj851V-lgB4kSj_IeYQC-204" vertex="1">
                    <mxGeometry x="-160" y="49" width="120" height="40" as="geometry"/>
                </mxCell>
                <mxCell id="Vj851V-lgB4kSj_IeYQC-241" value="&lt;font style=&quot;vertical-align: inherit&quot;&gt;&lt;font style=&quot;vertical-align: inherit&quot;&gt;ご飯を記録する&lt;/font&gt;&lt;/font&gt;" style="rounded=1;whiteSpace=wrap;html=1;" parent="Vj851V-lgB4kSj_IeYQC-204" vertex="1">
                    <mxGeometry x="-160" y="-51" width="120" height="40" as="geometry"/>
                </mxCell>
                <mxCell id="Vj851V-lgB4kSj_IeYQC-242" value="&lt;font style=&quot;vertical-align: inherit&quot;&gt;&lt;font style=&quot;vertical-align: inherit&quot;&gt;&lt;font style=&quot;vertical-align: inherit&quot;&gt;&lt;font style=&quot;vertical-align: inherit&quot;&gt;買い物リスト&lt;/font&gt;&lt;/font&gt;&lt;/font&gt;&lt;/font&gt;" style="rounded=1;whiteSpace=wrap;html=1;" parent="Vj851V-lgB4kSj_IeYQC-204" vertex="1">
                    <mxGeometry x="-160" y="99" width="120" height="40" as="geometry"/>
                </mxCell>
                <mxCell id="Vj851V-lgB4kSj_IeYQC-243" value="トップページ(すでに日記が作成されていた場合)" style="text;html=1;align=center;verticalAlign=middle;resizable=0;points=[];autosize=1;strokeColor=none;fontSize=8;" parent="Vj851V-lgB4kSj_IeYQC-204" vertex="1">
                    <mxGeometry x="-230" y="-110" width="230" height="20" as="geometry"/>
                </mxCell>
                <mxCell id="Vj851V-lgB4kSj_IeYQC-244" value="" style="endArrow=classic;html=1;exitX=0;exitY=0.5;exitDx=0;exitDy=0;entryX=-0.008;entryY=0.896;entryDx=0;entryDy=0;entryPerimeter=0;" parent="Vj851V-lgB4kSj_IeYQC-204" source="Vj851V-lgB4kSj_IeYQC-253" target="Vj851V-lgB4kSj_IeYQC-21" edge="1">
                    <mxGeometry width="50" height="50" relative="1" as="geometry">
                        <mxPoint x="-230" y="129.58" as="sourcePoint"/>
                        <mxPoint x="170" y="1090" as="targetPoint"/>
                        <Array as="points">
                            <mxPoint x="-680" y="45"/>
                            <mxPoint x="-680" y="1003"/>
                        </Array>
                    </mxGeometry>
                </mxCell>
                <mxCell id="Vj851V-lgB4kSj_IeYQC-245" value="今日の日記を編集するボタン" style="text;html=1;align=center;verticalAlign=middle;resizable=0;points=[];autosize=1;strokeColor=none;fontSize=8;" parent="Vj851V-lgB4kSj_IeYQC-204" vertex="1">
                    <mxGeometry x="-390" y="23" width="150" height="20" as="geometry"/>
                </mxCell>
                <mxCell id="Vj851V-lgB4kSj_IeYQC-247" value="" style="endArrow=none;dashed=1;html=1;dashPattern=1 1;strokeWidth=2;fontSize=8;entryX=0;entryY=0;entryDx=0;entryDy=0;exitX=1;exitY=1;exitDx=0;exitDy=0;" parent="Vj851V-lgB4kSj_IeYQC-204" source="Vj851V-lgB4kSj_IeYQC-253" target="Vj851V-lgB4kSj_IeYQC-7" edge="1">
                    <mxGeometry width="50" height="50" relative="1" as="geometry">
                        <mxPoint x="-30" y="200" as="sourcePoint"/>
                        <mxPoint x="20" y="150" as="targetPoint"/>
                    </mxGeometry>
                </mxCell>
                <mxCell id="Vj851V-lgB4kSj_IeYQC-250" value="" style="rounded=1;whiteSpace=wrap;html=1;absoluteArcSize=1;arcSize=14;strokeWidth=2;fontSize=8;dashed=1;dashPattern=1 1;" parent="Vj851V-lgB4kSj_IeYQC-204" vertex="1">
                    <mxGeometry x="290" y="880" width="100" height="100" as="geometry"/>
                </mxCell>
                <mxCell id="Vj851V-lgB4kSj_IeYQC-251" value="&lt;font&gt;&lt;font size=&quot;1&quot;&gt;削除しますか？&lt;/font&gt;&lt;br&gt;&lt;font style=&quot;font-size: 9px&quot;&gt;キャンセル&lt;/font&gt;&lt;font style=&quot;font-size: 9px&quot;&gt;　ok&lt;/font&gt;&lt;br&gt;&lt;/font&gt;" style="rounded=0;whiteSpace=wrap;html=1;" parent="Vj851V-lgB4kSj_IeYQC-204" vertex="1">
                    <mxGeometry x="300" y="890" width="80" height="30" as="geometry"/>
                </mxCell>
                <mxCell id="Vj851V-lgB4kSj_IeYQC-252" value="" style="endArrow=none;dashed=1;html=1;dashPattern=1 1;strokeWidth=2;fontSize=8;entryX=0.5;entryY=0;entryDx=0;entryDy=0;" parent="Vj851V-lgB4kSj_IeYQC-204" target="Vj851V-lgB4kSj_IeYQC-250" edge="1">
                    <mxGeometry width="50" height="50" relative="1" as="geometry">
                        <mxPoint x="340" y="860" as="sourcePoint"/>
                        <mxPoint x="410" y="940" as="targetPoint"/>
                    </mxGeometry>
                </mxCell>
                <mxCell id="Vj851V-lgB4kSj_IeYQC-253" value="" style="rounded=1;whiteSpace=wrap;html=1;absoluteArcSize=1;arcSize=14;strokeWidth=2;fontSize=8;dashed=1;dashPattern=1 1;fillColor=none;" parent="Vj851V-lgB4kSj_IeYQC-204" vertex="1">
                    <mxGeometry x="-240" y="-110" width="270" height="330" as="geometry"/>
                </mxCell>
                <mxCell id="1IbnEAX5noPfGrChRSVP-1" value="" style="rounded=0;whiteSpace=wrap;html=1;" parent="Vj851V-lgB4kSj_IeYQC-204" vertex="1">
                    <mxGeometry x="720" y="280" width="200" height="360" as="geometry"/>
                </mxCell>
                <mxCell id="1IbnEAX5noPfGrChRSVP-2" value="" style="endArrow=classic;html=1;" parent="Vj851V-lgB4kSj_IeYQC-204" edge="1">
                    <mxGeometry width="50" height="50" relative="1" as="geometry">
                        <mxPoint x="600" y="351" as="sourcePoint"/>
                        <mxPoint x="720" y="351" as="targetPoint"/>
                    </mxGeometry>
                </mxCell>
                <mxCell id="1IbnEAX5noPfGrChRSVP-3" value="体調チェックをするボタン" style="text;html=1;align=center;verticalAlign=middle;resizable=0;points=[];autosize=1;strokeColor=none;fontSize=8;" parent="Vj851V-lgB4kSj_IeYQC-204" vertex="1">
                    <mxGeometry x="585" y="330" width="140" height="20" as="geometry"/>
                </mxCell>
                <mxCell id="1IbnEAX5noPfGrChRSVP-4" value="" style="whiteSpace=wrap;html=1;shape=mxgraph.basic.document;fontSize=8;" parent="Vj851V-lgB4kSj_IeYQC-204" vertex="1">
                    <mxGeometry x="750" y="330" width="150" height="270" as="geometry"/>
                </mxCell>
                <mxCell id="1IbnEAX5noPfGrChRSVP-5" value="完了" style="rounded=1;whiteSpace=wrap;html=1;" parent="Vj851V-lgB4kSj_IeYQC-204" vertex="1">
                    <mxGeometry x="800" y="610" width="40" height="20" as="geometry"/>
                </mxCell>
                <mxCell id="1IbnEAX5noPfGrChRSVP-6" value="" style="endArrow=classic;html=1;exitX=0;exitY=0.75;exitDx=0;exitDy=0;entryX=1;entryY=0.75;entryDx=0;entryDy=0;" parent="Vj851V-lgB4kSj_IeYQC-204" source="1IbnEAX5noPfGrChRSVP-1" target="Vj851V-lgB4kSj_IeYQC-9" edge="1">
                    <mxGeometry width="50" height="50" relative="1" as="geometry">
                        <mxPoint x="713.5" y="559.9999999999999" as="sourcePoint"/>
                        <mxPoint x="596.5" y="561.92" as="targetPoint"/>
                    </mxGeometry>
                </mxCell>
                <mxCell id="1IbnEAX5noPfGrChRSVP-7" value="完了ボタン" style="text;html=1;align=center;verticalAlign=middle;resizable=0;points=[];autosize=1;strokeColor=none;fontSize=8;" parent="Vj851V-lgB4kSj_IeYQC-204" vertex="1">
                    <mxGeometry x="610" y="530" width="70" height="20" as="geometry"/>
                </mxCell>
                <mxCell id="1IbnEAX5noPfGrChRSVP-14" value="体調チェックリストページ" style="text;html=1;align=center;verticalAlign=middle;resizable=0;points=[];autosize=1;strokeColor=none;fontSize=8;" parent="Vj851V-lgB4kSj_IeYQC-204" vertex="1">
                    <mxGeometry x="720" y="250" width="130" height="20" as="geometry"/>
                </mxCell>
                <mxCell id="1IbnEAX5noPfGrChRSVP-16" value="→体調チェックをする" style="text;html=1;align=center;verticalAlign=middle;resizable=0;points=[];autosize=1;strokeColor=none;fontSize=8;" parent="Vj851V-lgB4kSj_IeYQC-204" vertex="1">
                    <mxGeometry x="440" y="540" width="120" height="20" as="geometry"/>
                </mxCell>
                <mxCell id="1IbnEAX5noPfGrChRSVP-18" value="以下で心配な点がありました" style="text;html=1;align=center;verticalAlign=middle;resizable=0;points=[];autosize=1;strokeColor=none;fontSize=8;" parent="Vj851V-lgB4kSj_IeYQC-204" vertex="1">
                    <mxGeometry x="425" y="927" width="150" height="20" as="geometry"/>
                </mxCell>
                <mxCell id="1IbnEAX5noPfGrChRSVP-19" value="・耳が〜" style="text;html=1;align=center;verticalAlign=middle;resizable=0;points=[];autosize=1;strokeColor=none;fontSize=8;" parent="Vj851V-lgB4kSj_IeYQC-204" vertex="1">
                    <mxGeometry x="425" y="944" width="60" height="20" as="geometry"/>
                </mxCell>
                <mxCell id="1IbnEAX5noPfGrChRSVP-20" value="・体型が〜" style="text;html=1;align=center;verticalAlign=middle;resizable=0;points=[];autosize=1;strokeColor=none;fontSize=8;" parent="Vj851V-lgB4kSj_IeYQC-204" vertex="1">
                    <mxGeometry x="425" y="960" width="70" height="20" as="geometry"/>
                </mxCell>
                <mxCell id="1IbnEAX5noPfGrChRSVP-26" value="→体調チェックをする" style="text;html=1;align=center;verticalAlign=middle;resizable=0;points=[];autosize=1;strokeColor=none;fontSize=8;" parent="Vj851V-lgB4kSj_IeYQC-204" vertex="1">
                    <mxGeometry x="765" y="930" width="120" height="20" as="geometry"/>
                </mxCell>
                <mxCell id="1IbnEAX5noPfGrChRSVP-27" value="→ご飯記録を更新する" style="text;html=1;align=center;verticalAlign=middle;resizable=0;points=[];autosize=1;strokeColor=none;fontSize=8;" parent="Vj851V-lgB4kSj_IeYQC-204" vertex="1">
                    <mxGeometry x="765" y="894" width="120" height="20" as="geometry"/>
                </mxCell>
                <mxCell id="1IbnEAX5noPfGrChRSVP-28" value="" style="rounded=0;whiteSpace=wrap;html=1;imageWidth=24;" parent="Vj851V-lgB4kSj_IeYQC-204" vertex="1">
                    <mxGeometry x="400" y="1120" width="200" height="360" as="geometry"/>
                </mxCell>
                <mxCell id="1IbnEAX5noPfGrChRSVP-29" value="&lt;span style=&quot;font-size: 8px&quot;&gt;月　日　曜日　時最終更新&lt;/span&gt;" style="text;html=1;align=center;verticalAlign=middle;resizable=0;points=[];autosize=1;strokeColor=none;" parent="Vj851V-lgB4kSj_IeYQC-204" vertex="1">
                    <mxGeometry x="414" y="1139" width="140" height="20" as="geometry"/>
                </mxCell>
                <mxCell id="1IbnEAX5noPfGrChRSVP-30" value="" style="rounded=0;whiteSpace=wrap;html=1;" parent="Vj851V-lgB4kSj_IeYQC-204" vertex="1">
                    <mxGeometry x="417.5" y="1220" width="165" height="40" as="geometry"/>
                </mxCell>
                <mxCell id="1IbnEAX5noPfGrChRSVP-31" value="今日のメモ" style="text;html=1;align=center;verticalAlign=middle;resizable=0;points=[];autosize=1;strokeColor=none;" parent="Vj851V-lgB4kSj_IeYQC-204" vertex="1">
                    <mxGeometry x="409" y="1200" width="80" height="20" as="geometry"/>
                </mxCell>
                <mxCell id="1IbnEAX5noPfGrChRSVP-32" value="画像" style="rounded=0;whiteSpace=wrap;html=1;" parent="Vj851V-lgB4kSj_IeYQC-204" vertex="1">
                    <mxGeometry x="417.5" y="1160" width="165" height="30" as="geometry"/>
                </mxCell>
                <mxCell id="1IbnEAX5noPfGrChRSVP-33" value="削除" style="rounded=1;whiteSpace=wrap;html=1;" parent="Vj851V-lgB4kSj_IeYQC-204" vertex="1">
                    <mxGeometry x="505" y="1447" width="70" height="20" as="geometry"/>
                </mxCell>
                <mxCell id="1IbnEAX5noPfGrChRSVP-34" value="編集" style="rounded=1;whiteSpace=wrap;html=1;" parent="Vj851V-lgB4kSj_IeYQC-204" vertex="1">
                    <mxGeometry x="425" y="1447" width="70" height="20" as="geometry"/>
                </mxCell>
                <mxCell id="1IbnEAX5noPfGrChRSVP-35" value="体重___g" style="text;html=1;align=center;verticalAlign=middle;resizable=0;points=[];autosize=1;strokeColor=none;" parent="Vj851V-lgB4kSj_IeYQC-204" vertex="1">
                    <mxGeometry x="419" y="1280" width="70" height="20" as="geometry"/>
                </mxCell>
                <mxCell id="1IbnEAX5noPfGrChRSVP-36" value="食べた餌の量約___g" style="text;html=1;align=center;verticalAlign=middle;resizable=0;points=[];autosize=1;strokeColor=none;" parent="Vj851V-lgB4kSj_IeYQC-204" vertex="1">
                    <mxGeometry x="419" y="1310" width="130" height="20" as="geometry"/>
                </mxCell>
                <mxCell id="1IbnEAX5noPfGrChRSVP-37" value="体調チェック" style="text;html=1;align=center;verticalAlign=middle;resizable=0;points=[];autosize=1;strokeColor=none;" parent="Vj851V-lgB4kSj_IeYQC-204" vertex="1">
                    <mxGeometry x="422" y="1342" width="90" height="20" as="geometry"/>
                </mxCell>
                <mxCell id="1IbnEAX5noPfGrChRSVP-38" value="戻る" style="rounded=1;whiteSpace=wrap;html=1;" parent="Vj851V-lgB4kSj_IeYQC-204" vertex="1">
                    <mxGeometry x="400" y="1120" width="70" height="20" as="geometry"/>
                </mxCell>
                <mxCell id="1IbnEAX5noPfGrChRSVP-42" value="" style="endArrow=none;dashed=1;html=1;dashPattern=1 1;strokeWidth=2;fontSize=8;exitX=0.75;exitY=0;exitDx=0;exitDy=0;" parent="Vj851V-lgB4kSj_IeYQC-204" source="1IbnEAX5noPfGrChRSVP-43" target="Vj851V-lgB4kSj_IeYQC-21" edge="1">
                    <mxGeometry width="50" height="50" relative="1" as="geometry">
                        <mxPoint x="560" y="1420" as="sourcePoint"/>
                        <mxPoint x="563" y="1060" as="targetPoint"/>
                    </mxGeometry>
                </mxCell>
                <mxCell id="1IbnEAX5noPfGrChRSVP-43" value="" style="rounded=1;whiteSpace=wrap;html=1;absoluteArcSize=1;arcSize=14;strokeWidth=2;fontSize=8;dashed=1;dashPattern=1 1;fillColor=none;" parent="Vj851V-lgB4kSj_IeYQC-204" vertex="1">
                    <mxGeometry x="349" y="1090" width="270" height="400" as="geometry"/>
                </mxCell>
                <mxCell id="1IbnEAX5noPfGrChRSVP-45" value="日記詳細ページ(体調チェックで問題がなかった場合)" style="text;html=1;align=center;verticalAlign=middle;resizable=0;points=[];autosize=1;strokeColor=none;fontSize=8;" parent="Vj851V-lgB4kSj_IeYQC-204" vertex="1">
                    <mxGeometry x="355" y="1100" width="250" height="20" as="geometry"/>
                </mxCell>
                <mxCell id="1IbnEAX5noPfGrChRSVP-46" value="心配な点はありませんでした" style="text;html=1;align=center;verticalAlign=middle;resizable=0;points=[];autosize=1;strokeColor=none;fontSize=8;" parent="Vj851V-lgB4kSj_IeYQC-204" vertex="1">
                    <mxGeometry x="430" y="1362" width="140" height="20" as="geometry"/>
                </mxCell>
                <mxCell id="1IbnEAX5noPfGrChRSVP-47" value="耳が汚れている" style="text;html=1;align=center;verticalAlign=middle;resizable=0;points=[];autosize=1;strokeColor=none;fontSize=8;" parent="Vj851V-lgB4kSj_IeYQC-204" vertex="1">
                    <mxGeometry x="780" y="330" width="90" height="20" as="geometry"/>
                </mxCell>
                <mxCell id="1IbnEAX5noPfGrChRSVP-48" value="歯が汚い" style="text;html=1;align=center;verticalAlign=middle;resizable=0;points=[];autosize=1;strokeColor=none;fontSize=8;" parent="Vj851V-lgB4kSj_IeYQC-204" vertex="1">
                    <mxGeometry x="780" y="350" width="60" height="20" as="geometry"/>
                </mxCell>
                <mxCell id="1IbnEAX5noPfGrChRSVP-54" value="その他心配な点" style="text;html=1;align=center;verticalAlign=middle;resizable=0;points=[];autosize=1;strokeColor=none;fontSize=8;" parent="Vj851V-lgB4kSj_IeYQC-204" vertex="1">
                    <mxGeometry x="780" y="460" width="90" height="20" as="geometry"/>
                </mxCell>
                <mxCell id="1IbnEAX5noPfGrChRSVP-55" value="心配な項目にチェックを&lt;br&gt;入れてください" style="text;html=1;align=center;verticalAlign=middle;resizable=0;points=[];autosize=1;strokeColor=none;fontSize=8;" parent="Vj851V-lgB4kSj_IeYQC-204" vertex="1">
                    <mxGeometry x="745" y="290" width="130" height="30" as="geometry"/>
                </mxCell>
                <mxCell id="1IbnEAX5noPfGrChRSVP-57" value="_________________" style="text;html=1;align=center;verticalAlign=middle;resizable=0;points=[];autosize=1;strokeColor=none;fontSize=8;" parent="Vj851V-lgB4kSj_IeYQC-204" vertex="1">
                    <mxGeometry x="780" y="490" width="110" height="20" as="geometry"/>
                </mxCell>
                <mxCell id="ciVzXoBMwC5azgXlxx6R-23" value="ログアウト" style="rounded=1;whiteSpace=wrap;html=1;" parent="Vj851V-lgB4kSj_IeYQC-204" vertex="1">
                    <mxGeometry x="-160" y="150" width="120" height="40" as="geometry"/>
                </mxCell>
                <mxCell id="ciVzXoBMwC5azgXlxx6R-24" value="" style="endArrow=none;dashed=1;html=1;dashPattern=1 1;strokeWidth=2;fontSize=8;exitX=0;exitY=1;exitDx=0;exitDy=0;" parent="Vj851V-lgB4kSj_IeYQC-204" source="ciVzXoBMwC5azgXlxx6R-25" edge="1">
                    <mxGeometry width="50" height="50" relative="1" as="geometry">
                        <mxPoint x="1180" y="155" as="sourcePoint"/>
                        <mxPoint x="280" y="330" as="targetPoint"/>
                    </mxGeometry>
                </mxCell>
                <mxCell id="ciVzXoBMwC5azgXlxx6R-25" value="" style="rounded=1;whiteSpace=wrap;html=1;absoluteArcSize=1;arcSize=14;strokeWidth=2;fontSize=8;dashed=1;dashPattern=1 1;fillColor=none;" parent="Vj851V-lgB4kSj_IeYQC-204" vertex="1">
                    <mxGeometry x="970" y="-155" width="270" height="330" as="geometry"/>
                </mxCell>
                <mxCell id="ciVzXoBMwC5azgXlxx6R-26" value="ログインしていない場合" style="text;html=1;align=center;verticalAlign=middle;resizable=0;points=[];autosize=1;strokeColor=none;" parent="Vj851V-lgB4kSj_IeYQC-204" vertex="1">
                    <mxGeometry x="980" y="-150" width="150" height="20" as="geometry"/>
                </mxCell>
                <mxCell id="ciVzXoBMwC5azgXlxx6R-27" value="" style="endArrow=classic;html=1;exitX=0.5;exitY=0;exitDx=0;exitDy=0;entryX=1;entryY=0.5;entryDx=0;entryDy=0;" parent="Vj851V-lgB4kSj_IeYQC-204" source="ciVzXoBMwC5azgXlxx6R-25" target="ciVzXoBMwC5azgXlxx6R-18" edge="1">
                    <mxGeometry width="50" height="50" relative="1" as="geometry">
                        <mxPoint x="727.8000000000002" y="10.120000000000118" as="sourcePoint"/>
                        <mxPoint x="292" y="311.5600000000004" as="targetPoint"/>
                    </mxGeometry>
                </mxCell>
                <mxCell id="ciVzXoBMwC5azgXlxx6R-29" value="キャンセル" style="rounded=1;whiteSpace=wrap;html=1;" parent="Vj851V-lgB4kSj_IeYQC-204" vertex="1">
                    <mxGeometry x="720" y="-420" width="70" height="20" as="geometry"/>
                </mxCell>
                <mxCell id="ciVzXoBMwC5azgXlxx6R-30" value="" style="endArrow=classic;html=1;exitX=1.003;exitY=0.352;exitDx=0;exitDy=0;exitPerimeter=0;" parent="Vj851V-lgB4kSj_IeYQC-204" source="ciVzXoBMwC5azgXlxx6R-18" edge="1">
                    <mxGeometry width="50" height="50" relative="1" as="geometry">
                        <mxPoint x="1115" y="-145" as="sourcePoint"/>
                        <mxPoint x="1140" y="-160" as="targetPoint"/>
                    </mxGeometry>
                </mxCell>
                <mxCell id="ciVzXoBMwC5azgXlxx6R-31" value="キャンセルボタン" style="text;html=1;align=center;verticalAlign=middle;resizable=0;points=[];autosize=1;strokeColor=none;" parent="Vj851V-lgB4kSj_IeYQC-204" vertex="1">
                    <mxGeometry x="975" y="-280" width="110" height="20" as="geometry"/>
                </mxCell>
                <mxCell id="ciVzXoBMwC5azgXlxx6R-32" value="新規登録するボタン" style="text;html=1;align=center;verticalAlign=middle;resizable=0;points=[];autosize=1;strokeColor=none;" parent="Vj851V-lgB4kSj_IeYQC-204" vertex="1">
                    <mxGeometry x="880" y="-230" width="120" height="20" as="geometry"/>
                </mxCell>
                <mxCell id="ciVzXoBMwC5azgXlxx6R-34" value="" style="endArrow=classic;html=1;entryX=1;entryY=0.5;entryDx=0;entryDy=0;exitX=0;exitY=0.5;exitDx=0;exitDy=0;" parent="Vj851V-lgB4kSj_IeYQC-204" source="ciVzXoBMwC5azgXlxx6R-25" target="ciVzXoBMwC5azgXlxx6R-8" edge="1">
                    <mxGeometry width="50" height="50" relative="1" as="geometry">
                        <mxPoint x="520" y="325" as="sourcePoint"/>
                        <mxPoint x="960" y="15.000000000000227" as="targetPoint"/>
                    </mxGeometry>
                </mxCell>
                <mxCell id="ciVzXoBMwC5azgXlxx6R-35" value="" style="endArrow=classic;html=1;exitX=1.017;exitY=0.286;exitDx=0;exitDy=0;exitPerimeter=0;entryX=0.007;entryY=0.314;entryDx=0;entryDy=0;entryPerimeter=0;" parent="Vj851V-lgB4kSj_IeYQC-204" source="ciVzXoBMwC5azgXlxx6R-8" target="ciVzXoBMwC5azgXlxx6R-25" edge="1">
                    <mxGeometry width="50" height="50" relative="1" as="geometry">
                        <mxPoint x="980" y="20.000000000000227" as="sourcePoint"/>
                        <mxPoint x="930" y="30.000000000000227" as="targetPoint"/>
                    </mxGeometry>
                </mxCell>
                <mxCell id="ciVzXoBMwC5azgXlxx6R-36" value="キャンセル" style="rounded=1;whiteSpace=wrap;html=1;" parent="Vj851V-lgB4kSj_IeYQC-204" vertex="1">
                    <mxGeometry x="720" y="-120" width="70" height="20" as="geometry"/>
                </mxCell>
                <mxCell id="ciVzXoBMwC5azgXlxx6R-37" value="キャンセルボタン" style="text;html=1;align=center;verticalAlign=middle;resizable=0;points=[];autosize=1;strokeColor=none;" parent="Vj851V-lgB4kSj_IeYQC-204" vertex="1">
                    <mxGeometry x="880" y="-80" width="110" height="20" as="geometry"/>
                </mxCell>
                <mxCell id="ciVzXoBMwC5azgXlxx6R-38" value="ログインするボタン" style="text;html=1;align=center;verticalAlign=middle;resizable=0;points=[];autosize=1;strokeColor=none;" parent="Vj851V-lgB4kSj_IeYQC-204" vertex="1">
                    <mxGeometry x="875" y="-11" width="120" height="20" as="geometry"/>
                </mxCell>
                <mxCell id="ciVzXoBMwC5azgXlxx6R-39" value="ログインボタン" style="text;html=1;align=center;verticalAlign=middle;resizable=0;points=[];autosize=1;strokeColor=none;" parent="Vj851V-lgB4kSj_IeYQC-204" vertex="1">
                    <mxGeometry x="560" y="40" width="100" height="20" as="geometry"/>
                </mxCell>
                <mxCell id="ciVzXoBMwC5azgXlxx6R-40" value="ログアウトボタン" style="text;html=1;align=center;verticalAlign=middle;resizable=0;points=[];autosize=1;strokeColor=none;" parent="Vj851V-lgB4kSj_IeYQC-204" vertex="1">
                    <mxGeometry x="619" y="160" width="110" height="20" as="geometry"/>
                </mxCell>
            </root>
        </mxGraphModel>
    </diagram>
    <diagram name="モデリング" id="DxD0dttNYOfyn1WhV68c">
        <mxGraphModel dx="735" dy="1697" grid="1" gridSize="10" guides="1" tooltips="1" connect="1" arrows="1" fold="1" page="1" pageScale="1" pageWidth="827" pageHeight="1169" math="0" shadow="0">
            <root>
                <mxCell id="R8XzKXwj9-n_edis614x-0"/>
                <mxCell id="R8XzKXwj9-n_edis614x-1" parent="R8XzKXwj9-n_edis614x-0"/>
                <mxCell id="N--PfRfoKrsmVaRcWDNU-0" value="買いものリスト機能" style="swimlane;childLayout=stackLayout;horizontal=1;startSize=30;horizontalStack=0;rounded=1;fontSize=14;fontStyle=0;strokeWidth=2;resizeParent=0;resizeLast=1;shadow=0;dashed=0;align=center;dashPattern=1 1;fillColor=none;" parent="R8XzKXwj9-n_edis614x-1" vertex="1">
                    <mxGeometry x="260" width="160" height="120" as="geometry"/>
                </mxCell>
                <mxCell id="N--PfRfoKrsmVaRcWDNU-7" value="商品名&#10;" style="align=left;strokeColor=none;fillColor=none;spacingLeft=4;fontSize=12;verticalAlign=top;resizable=0;rotatable=0;part=1;" parent="N--PfRfoKrsmVaRcWDNU-0" vertex="1">
                    <mxGeometry y="30" width="160" height="90" as="geometry"/>
                </mxCell>
                <mxCell id="N--PfRfoKrsmVaRcWDNU-5" value="日記機能" style="swimlane;childLayout=stackLayout;horizontal=1;startSize=30;horizontalStack=0;rounded=1;fontSize=14;fontStyle=0;strokeWidth=2;resizeParent=0;resizeLast=1;shadow=0;dashed=0;align=center;dashPattern=1 1;fillColor=none;" parent="R8XzKXwj9-n_edis614x-1" vertex="1">
                    <mxGeometry x="520" y="280" width="160" height="150" as="geometry"/>
                </mxCell>
                <mxCell id="N--PfRfoKrsmVaRcWDNU-6" value="日付&#10;時間&#10;メモ&#10;画像&#10;体重&#10;" style="align=left;strokeColor=none;fillColor=none;spacingLeft=4;fontSize=12;verticalAlign=top;resizable=0;rotatable=0;part=1;" parent="N--PfRfoKrsmVaRcWDNU-5" vertex="1">
                    <mxGeometry y="30" width="160" height="120" as="geometry"/>
                </mxCell>
                <mxCell id="Sp0E-I7ZKnVul2SWWz7Q-0" value="アプリの機能" style="swimlane;fontStyle=0;childLayout=stackLayout;horizontal=1;startSize=26;horizontalStack=0;resizeParent=1;resizeParentMax=0;resizeLast=0;collapsible=1;marginBottom=0;align=center;fontSize=14;dashed=1;dashPattern=1 1;fillColor=none;flipV=0;resizeHeight=1;metaEdit=1;backgroundOutline=0;movable=1;container=1;verticalAlign=middle;" parent="R8XzKXwj9-n_edis614x-1" vertex="1">
                    <mxGeometry x="80" y="-160" width="160" height="380" as="geometry">
                        <mxRectangle x="80" y="60" width="120" height="26" as="alternateBounds"/>
                    </mxGeometry>
                </mxCell>
                <mxCell id="Sp0E-I7ZKnVul2SWWz7Q-1" value="買いものリスト作成機能" style="text;strokeColor=none;fillColor=none;spacingLeft=4;spacingRight=4;overflow=hidden;rotatable=0;points=[[0,0.5],[1,0.5]];portConstraint=eastwest;fontSize=12;" parent="Sp0E-I7ZKnVul2SWWz7Q-0" vertex="1">
                    <mxGeometry y="26" width="160" height="30" as="geometry"/>
                </mxCell>
                <mxCell id="Sp0E-I7ZKnVul2SWWz7Q-2" value="買いものリスト追加機能" style="text;strokeColor=none;fillColor=none;spacingLeft=4;spacingRight=4;overflow=hidden;rotatable=0;points=[[0,0.5],[1,0.5]];portConstraint=eastwest;fontSize=12;" parent="Sp0E-I7ZKnVul2SWWz7Q-0" vertex="1">
                    <mxGeometry y="56" width="160" height="30" as="geometry"/>
                </mxCell>
                <mxCell id="Sp0E-I7ZKnVul2SWWz7Q-3" value="買いものリスト購入機能" style="text;strokeColor=none;fillColor=none;spacingLeft=4;spacingRight=4;overflow=hidden;rotatable=0;points=[[0,0.5],[1,0.5]];portConstraint=eastwest;fontSize=12;" parent="Sp0E-I7ZKnVul2SWWz7Q-0" vertex="1">
                    <mxGeometry y="86" width="160" height="24" as="geometry"/>
                </mxCell>
                <mxCell id="Sp0E-I7ZKnVul2SWWz7Q-17" value="日記作成機能" style="text;strokeColor=none;fillColor=none;spacingLeft=4;spacingRight=4;overflow=hidden;rotatable=0;points=[[0,0.5],[1,0.5]];portConstraint=eastwest;fontSize=12;verticalAlign=middle;" parent="Sp0E-I7ZKnVul2SWWz7Q-0" vertex="1">
                    <mxGeometry y="110" width="160" height="30" as="geometry"/>
                </mxCell>
                <mxCell id="SMlSj5W0kILokjVEFJE3-0" value="日記編集機能" style="text;strokeColor=none;fillColor=none;spacingLeft=4;spacingRight=4;overflow=hidden;rotatable=0;points=[[0,0.5],[1,0.5]];portConstraint=eastwest;fontSize=12;verticalAlign=middle;" parent="Sp0E-I7ZKnVul2SWWz7Q-0" vertex="1">
                    <mxGeometry y="140" width="160" height="30" as="geometry"/>
                </mxCell>
                <mxCell id="Sp0E-I7ZKnVul2SWWz7Q-18" value="日記削除機能" style="text;strokeColor=none;fillColor=none;spacingLeft=4;spacingRight=4;overflow=hidden;rotatable=0;points=[[0,0.5],[1,0.5]];portConstraint=eastwest;fontSize=12;verticalAlign=middle;" parent="Sp0E-I7ZKnVul2SWWz7Q-0" vertex="1">
                    <mxGeometry y="170" width="160" height="30" as="geometry"/>
                </mxCell>
                <mxCell id="SMlSj5W0kILokjVEFJE3-1" value="ご飯登録機能" style="text;strokeColor=none;fillColor=none;spacingLeft=4;spacingRight=4;overflow=hidden;rotatable=0;points=[[0,0.5],[1,0.5]];portConstraint=eastwest;fontSize=12;verticalAlign=middle;" parent="Sp0E-I7ZKnVul2SWWz7Q-0" vertex="1">
                    <mxGeometry y="200" width="160" height="30" as="geometry"/>
                </mxCell>
                <mxCell id="SMlSj5W0kILokjVEFJE3-2" value="日記表示機能" style="text;strokeColor=none;fillColor=none;spacingLeft=4;spacingRight=4;overflow=hidden;rotatable=0;points=[[0,0.5],[1,0.5]];portConstraint=eastwest;fontSize=12;verticalAlign=middle;" parent="Sp0E-I7ZKnVul2SWWz7Q-0" vertex="1">
                    <mxGeometry y="230" width="160" height="30" as="geometry"/>
                </mxCell>
                <mxCell id="UG8hXhq2kEaI1dd0iCsx-3" value="ユーザーログイン機能" style="text;strokeColor=none;fillColor=none;spacingLeft=4;spacingRight=4;overflow=hidden;rotatable=0;points=[[0,0.5],[1,0.5]];portConstraint=eastwest;fontSize=12;verticalAlign=middle;" parent="Sp0E-I7ZKnVul2SWWz7Q-0" vertex="1">
                    <mxGeometry y="260" width="160" height="30" as="geometry"/>
                </mxCell>
                <mxCell id="UG8hXhq2kEaI1dd0iCsx-4" value="ユーザーログアウト機能" style="text;strokeColor=none;fillColor=none;spacingLeft=4;spacingRight=4;overflow=hidden;rotatable=0;points=[[0,0.5],[1,0.5]];portConstraint=eastwest;fontSize=12;verticalAlign=middle;" parent="Sp0E-I7ZKnVul2SWWz7Q-0" vertex="1">
                    <mxGeometry y="290" width="160" height="30" as="geometry"/>
                </mxCell>
                <mxCell id="UG8hXhq2kEaI1dd0iCsx-5" value="ユーザーログアウト機能" style="text;strokeColor=none;fillColor=none;spacingLeft=4;spacingRight=4;overflow=hidden;rotatable=0;points=[[0,0.5],[1,0.5]];portConstraint=eastwest;fontSize=12;verticalAlign=middle;" parent="Sp0E-I7ZKnVul2SWWz7Q-0" vertex="1">
                    <mxGeometry y="320" width="160" height="30" as="geometry"/>
                </mxCell>
                <mxCell id="UG8hXhq2kEaI1dd0iCsx-2" value="体調チェック機能機能" style="text;strokeColor=none;fillColor=none;spacingLeft=4;spacingRight=4;overflow=hidden;rotatable=0;points=[[0,0.5],[1,0.5]];portConstraint=eastwest;fontSize=12;verticalAlign=middle;" parent="Sp0E-I7ZKnVul2SWWz7Q-0" vertex="1">
                    <mxGeometry y="350" width="160" height="30" as="geometry"/>
                </mxCell>
                <mxCell id="iJ07GBNm8aJriVsCVLNA-2" value="ご飯管理機能" style="swimlane;childLayout=stackLayout;horizontal=1;startSize=30;horizontalStack=0;rounded=1;fontSize=14;fontStyle=0;strokeWidth=2;resizeParent=0;resizeLast=1;shadow=0;dashed=0;align=center;dashPattern=1 1;fillColor=none;" parent="R8XzKXwj9-n_edis614x-1" vertex="1">
                    <mxGeometry x="100" y="280" width="160" height="150" as="geometry"/>
                </mxCell>
                <mxCell id="iJ07GBNm8aJriVsCVLNA-3" value="日付&#10;日時&#10;昨日の残り&#10;追加(朝)&#10;追加(昼)&#10;追加(夜)&#10;今日の残り&#10;食べた餌の量" style="align=left;strokeColor=none;fillColor=none;spacingLeft=4;fontSize=12;verticalAlign=top;resizable=0;rotatable=0;part=1;" parent="iJ07GBNm8aJriVsCVLNA-2" vertex="1">
                    <mxGeometry y="30" width="160" height="120" as="geometry"/>
                </mxCell>
                <mxCell id="4xRKvgPg_9uaJCLpEwhn-1" value="一つの日記は一つのご飯情報を持つ" style="text;html=1;align=center;verticalAlign=middle;resizable=0;points=[];autosize=1;strokeColor=none;" parent="R8XzKXwj9-n_edis614x-1" vertex="1">
                    <mxGeometry x="270" y="380" width="210" height="20" as="geometry"/>
                </mxCell>
                <mxCell id="87aQxfif592A4SfS6xoi-0" value="体調チェック機能" style="swimlane;childLayout=stackLayout;horizontal=1;startSize=30;horizontalStack=0;rounded=1;fontSize=14;fontStyle=0;strokeWidth=2;resizeParent=0;resizeLast=1;shadow=0;dashed=0;align=center;dashPattern=1 1;fillColor=none;" parent="R8XzKXwj9-n_edis614x-1" vertex="1">
                    <mxGeometry x="480" width="240" height="180" as="geometry"/>
                </mxCell>
                <mxCell id="87aQxfif592A4SfS6xoi-2" value="耳から匂いがする&#10;目が赤い&#10;目ヤニが出ている&#10;口の匂いがする&#10;歯垢がついている&#10;ゼェゼェ音を立てて呼吸する&#10;フケがある&#10;皮膚に赤みがある&#10;ウンチが柔らかすぎる、下痢をしている" style="align=left;strokeColor=none;fillColor=none;spacingLeft=4;fontSize=12;verticalAlign=top;resizable=0;rotatable=0;part=1;" parent="87aQxfif592A4SfS6xoi-0" vertex="1">
                    <mxGeometry y="30" width="240" height="150" as="geometry"/>
                </mxCell>
                <mxCell id="87aQxfif592A4SfS6xoi-3" value="" style="endArrow=none;html=1;dashed=1;dashPattern=1 1;fontSize=8;exitX=1;exitY=0.25;exitDx=0;exitDy=0;entryX=0;entryY=0.25;entryDx=0;entryDy=0;" parent="R8XzKXwj9-n_edis614x-1" source="iJ07GBNm8aJriVsCVLNA-3" target="N--PfRfoKrsmVaRcWDNU-6" edge="1">
                    <mxGeometry width="50" height="50" relative="1" as="geometry">
                        <mxPoint x="630" y="290" as="sourcePoint"/>
                        <mxPoint x="680" y="240" as="targetPoint"/>
                    </mxGeometry>
                </mxCell>
                <mxCell id="87aQxfif592A4SfS6xoi-4" value="" style="endArrow=none;html=1;dashed=1;dashPattern=1 1;fontSize=8;exitX=0.5;exitY=0;exitDx=0;exitDy=0;entryX=0.5;entryY=1;entryDx=0;entryDy=0;" parent="R8XzKXwj9-n_edis614x-1" source="N--PfRfoKrsmVaRcWDNU-5" target="87aQxfif592A4SfS6xoi-2" edge="1">
                    <mxGeometry width="50" height="50" relative="1" as="geometry">
                        <mxPoint x="630" y="190" as="sourcePoint"/>
                        <mxPoint x="680" y="140" as="targetPoint"/>
                    </mxGeometry>
                </mxCell>
                <mxCell id="87aQxfif592A4SfS6xoi-5" value="一つの日記は複数のチェック項目を持つ" style="text;html=1;align=center;verticalAlign=middle;resizable=0;points=[];autosize=1;strokeColor=none;fontSize=8;" parent="R8XzKXwj9-n_edis614x-1" vertex="1">
                    <mxGeometry x="530" y="210" width="200" height="20" as="geometry"/>
                </mxCell>
                <mxCell id="UG8hXhq2kEaI1dd0iCsx-6" value="ユーザー管理機能" style="swimlane;childLayout=stackLayout;horizontal=1;startSize=30;horizontalStack=0;rounded=1;fontSize=14;fontStyle=0;strokeWidth=2;resizeParent=0;resizeLast=1;shadow=0;dashed=0;align=center;dashPattern=1 1;fillColor=none;" parent="R8XzKXwj9-n_edis614x-1" vertex="1">
                    <mxGeometry x="260" y="150" width="160" height="120" as="geometry"/>
                </mxCell>
                <mxCell id="UG8hXhq2kEaI1dd0iCsx-7" value="e-mail&#10;password" style="align=left;strokeColor=none;fillColor=none;spacingLeft=4;fontSize=12;verticalAlign=top;resizable=0;rotatable=0;part=1;" parent="UG8hXhq2kEaI1dd0iCsx-6" vertex="1">
                    <mxGeometry y="30" width="160" height="90" as="geometry"/>
                </mxCell>
                <mxCell id="UG8hXhq2kEaI1dd0iCsx-10" value="" style="endArrow=none;html=1;dashed=1;dashPattern=1 1;fontSize=8;entryX=0;entryY=0;entryDx=0;entryDy=0;" parent="R8XzKXwj9-n_edis614x-1" source="UG8hXhq2kEaI1dd0iCsx-7" target="N--PfRfoKrsmVaRcWDNU-5" edge="1">
                    <mxGeometry width="50" height="50" relative="1" as="geometry">
                        <mxPoint x="190" y="290" as="sourcePoint"/>
                        <mxPoint x="270" y="235" as="targetPoint"/>
                    </mxGeometry>
                </mxCell>
                <mxCell id="UG8hXhq2kEaI1dd0iCsx-11" value="ユーザは複数の日記を持つ" style="text;html=1;align=center;verticalAlign=middle;resizable=0;points=[];autosize=1;strokeColor=none;" parent="R8XzKXwj9-n_edis614x-1" vertex="1">
                    <mxGeometry x="350" y="270" width="160" height="20" as="geometry"/>
                </mxCell>
            </root>
        </mxGraphModel>
    </diagram>
</mxfile>